<?xml version="1.0" encoding="UTF-8"?>
<svg version="1.1" xmlns="http://www.w3.org/2000/svg" width="375" height="120">
<path d="M0 0 C56.76 0 113.52 0 172 0 C172 25.74 172 51.48 172 78 C115.24 78 58.48 78 0 78 C0 52.26 0 26.52 0 0 Z " fill="#16879B" transform="translate(25,21)"/>
<path d="M0 0 C1.78179127 -0.00967334 1.78179127 -0.00967334 3.59957832 -0.0195421 C4.91103374 -0.01644489 6.22248916 -0.01334769 7.57368565 -0.01015663 C8.97585866 -0.01389121 10.37802959 -0.01849196 11.7801972 -0.02388728 C15.64225555 -0.03615642 19.50422753 -0.03585223 23.36630094 -0.03349853 C27.52793146 -0.03309135 31.68953393 -0.04411995 35.85115147 -0.05361366 C44.00759735 -0.07024565 52.16401433 -0.07572418 60.32047575 -0.07683842 C66.94794927 -0.07778777 73.57541323 -0.08189242 80.20288372 -0.08823967 C98.97966113 -0.10585743 117.75641565 -0.11507761 136.53320139 -0.11357872 C138.05244848 -0.11345885 138.05244848 -0.11345885 139.60238743 -0.11333656 C140.6164507 -0.1132548 141.63051398 -0.11317304 142.67530645 -0.1130888 C159.11682958 -0.11227556 175.55826117 -0.13142134 191.99975782 -0.1596133 C208.86870377 -0.18831074 225.73760503 -0.20215535 242.60657603 -0.20042574 C252.0825185 -0.19976079 261.558365 -0.20529899 271.03428555 -0.22678185 C279.10102863 -0.24495232 287.16763222 -0.24937509 295.23438685 -0.235763 C299.35236777 -0.22921257 303.47008076 -0.22919041 307.58803654 -0.2464695 C311.35513524 -0.26211424 315.12175168 -0.25942573 318.888838 -0.24190123 C320.90288145 -0.23734473 322.91693935 -0.25255579 324.93092579 -0.26838052 C326.71662868 -0.25458414 326.71662868 -0.25458414 328.53840637 -0.24050903 C330.08294767 -0.24116114 330.08294767 -0.24116114 331.65869182 -0.24182642 C335.03626892 0.38872374 336.19593845 1.62673846 338.33212376 4.25726891 C339.88882741 7.37067621 339.50605095 10.68100402 339.52499485 14.10004234 C339.53317234 14.90999657 339.54134983 15.71995079 339.54977512 16.55444908 C339.57463955 19.2418398 339.59114874 21.92917763 339.60556126 24.61664391 C339.61088493 25.53405609 339.61620861 26.45146828 339.62169361 27.39668083 C339.64843113 32.25352201 339.66780316 37.11033744 339.68222141 41.96722984 C339.69886104 46.98225052 339.7436312 51.99661299 339.79459286 57.01138496 C339.82826396 60.86846222 339.83979875 64.72538331 339.84544849 68.58259392 C339.85216251 70.43096757 339.86738854 72.2793309 339.8913393 74.12756157 C339.92298844 76.71789048 339.92302831 79.30644553 339.91561985 81.89691734 C339.93202518 82.65766563 339.94843052 83.41841393 339.96533298 84.20221519 C339.91465031 88.54116794 339.17774006 91.72573994 336.24537909 95.00862026 C331.81795343 97.89809296 325.98465997 97.06341096 320.89474583 97.00571251 C319.49567439 97.01119389 318.09661118 97.01929825 316.69756842 97.02979982 C312.85306166 97.05099051 309.00948375 97.03470677 305.16501737 97.01229882 C301.0190537 96.99462807 296.87321246 97.01149787 292.7272501 97.02402306 C284.60537845 97.04301117 276.48386188 97.02978915 268.36201656 97.00549717 C258.90712063 96.97827038 249.45230953 96.98153171 239.99738437 96.98576383 C223.12923624 96.99214537 206.26125697 96.96879827 189.39315891 96.92963219 C173.01908316 96.89162306 156.64520531 96.87745684 140.2710886 96.88861656 C122.44782309 96.90072799 104.62464464 96.90038567 86.80138636 96.8776449 C84.90143013 96.87523028 83.00147391 96.8728183 81.10151768 96.87040901 C79.69923536 96.8685984 79.69923536 96.8685984 78.2686241 96.8667512 C71.67552792 96.85898748 65.08246412 96.85978222 58.48936558 96.8635807 C50.45633807 96.86782187 42.42348403 96.85739751 34.39050543 96.8283536 C30.29063467 96.81385091 26.19101673 96.80572383 22.09112453 96.81484032 C18.33943774 96.82297971 14.58827347 96.81270211 10.83666605 96.78758816 C8.83342587 96.77893777 6.83013078 96.78992874 4.82690573 96.80156672 C3.63916288 96.78990233 2.45142003 96.77823795 1.22768497 96.76622009 C-0.31010388 96.76361976 -0.31010388 96.76361976 -1.87895918 96.7609669 C-5.41056229 96.12313459 -7.09723902 94.70976037 -9.66787624 92.25726891 C-11.2294589 89.13410359 -10.81515254 85.81119886 -10.81313992 82.38275719 C-10.81817783 81.16300697 -10.81817783 81.16300697 -10.82331753 79.91861534 C-10.83284205 77.22158863 -10.83477145 74.52462391 -10.83584499 71.82758141 C-10.83905674 69.95672136 -10.84242075 68.08586157 -10.84593105 66.21500206 C-10.85192623 62.28914368 -10.85377058 58.36330732 -10.85317898 54.43744469 C-10.85307738 49.40453494 -10.86672532 44.37176636 -10.88395119 39.33889008 C-10.8950653 35.47331658 -10.89709836 31.60777725 -10.89656925 27.74218941 C-10.89775042 25.8866267 -10.90217985 24.03106314 -10.90990162 22.17551613 C-10.91968878 19.58043325 -10.91682843 16.98565741 -10.91079617 14.39056969 C-10.91641567 13.62263084 -10.92203518 12.854692 -10.92782497 12.06348228 C-10.88794551 5.31882559 -10.88794551 5.31882559 -8.66787624 2.25726891 C-5.24344785 -0.02568335 -4.02516984 0.00550819 0 0 Z M-5.66787624 5.25726891 C-7.20851834 8.33855309 -6.82400079 11.58212024 -6.82900906 14.96405602 C-6.83397396 15.75932198 -6.83893887 16.55458794 -6.84405422 17.37395287 C-6.85868742 20.01084818 -6.86547922 22.64768337 -6.87100124 25.28461266 C-6.87675107 27.1130276 -6.88250882 28.94144251 -6.88827419 30.76985741 C-6.89878701 34.605752 -6.90462806 38.4416256 -6.90811062 42.27753258 C-6.91360062 47.19850325 -6.93763818 52.11919796 -6.96608257 57.04008198 C-6.98468219 60.81725952 -6.98991308 64.59437018 -6.9914465 68.37158966 C-6.99447885 70.18612301 -7.0025269 72.00065502 -7.01563168 73.81514359 C-7.032639 76.35067355 -7.03082534 78.8855238 -7.02432156 81.42108727 C-7.03353634 82.17391991 -7.04275112 82.92675255 -7.05224514 83.7023983 C-7.04162869 87.703237 -7.04162869 87.703237 -5.27059841 91.18453026 C-2.09867936 93.30756831 -0.04782935 93.38324159 3.75201321 93.38590336 C4.91001584 93.3891278 6.06801847 93.39235225 7.26111209 93.39567441 C8.54435277 93.39412581 9.82759344 93.3925772 11.14972019 93.39098167 C12.51802989 93.39284842 13.88633906 93.39514857 15.25464737 93.397847 C19.02773479 93.40398835 22.80080012 93.40382867 26.5738914 93.40265262 C30.63805057 93.4024492 34.70220253 93.40796175 38.76635838 93.41271019 C46.73377242 93.42103015 54.70117907 93.42376564 62.66859709 93.42432257 C69.14258261 93.4247971 75.61656568 93.42684872 82.09055042 93.43002319 C100.43053214 93.43883354 118.770508 93.44344199 137.11049186 93.44269272 C138.5947431 93.44263279 138.5947431 93.44263279 140.10897923 93.44257164 C141.09968308 93.44253076 142.09038694 93.44248988 143.11111213 93.44244776 C159.17114451 93.44204121 175.23115345 93.45161202 191.29117905 93.46571001 C207.76684415 93.48005915 224.24249782 93.48698099 240.71816933 93.48611623 C249.9738855 93.48578375 259.22957711 93.48855318 268.48528767 93.49929428 C276.36537447 93.5083801 284.24542557 93.5105904 292.12551533 93.50378486 C296.14822908 93.50050987 300.17087426 93.50049803 304.19358158 93.50913811 C307.87362762 93.51696111 311.55355025 93.51561504 315.23359312 93.50685398 C317.20094858 93.50457609 319.16830774 93.51218049 321.13564861 93.52009362 C322.29886674 93.51549482 323.46208486 93.51089603 324.66055202 93.50615788 C325.6664862 93.50637524 326.67242037 93.50659261 327.70883739 93.50681657 C330.42731887 93.2482132 332.0525774 92.73794244 334.33212376 91.25726891 C335.87276585 88.17598472 335.4882483 84.93241757 335.49325657 81.5504818 C335.49822147 80.75521584 335.50318638 79.95994987 335.50830173 79.14058495 C335.52293493 76.50368963 335.52972673 73.86685444 335.53524876 71.22992516 C335.54099858 69.40151021 335.54675633 67.5730953 335.55252171 65.7446804 C335.56303453 61.90878582 335.56887557 58.07291221 335.57235813 54.23700523 C335.57784813 49.31603456 335.6018857 44.39533985 335.63033009 39.47445583 C335.6489297 35.69727829 335.6541606 31.92016763 335.65569401 28.14294815 C335.65872636 26.3284148 335.66677441 24.51388279 335.67987919 22.69939423 C335.69688651 20.16386426 335.69507285 17.62901401 335.68856907 15.09345055 C335.69778385 14.3406179 335.70699863 13.58778526 335.71649265 12.81213951 C335.70587621 8.81130081 335.70587621 8.81130081 333.93484592 5.33000755 C330.76292687 3.2069695 328.71207686 3.13129623 324.91223431 3.12863445 C323.75423167 3.12541001 322.59622904 3.12218556 321.40313542 3.1188634 C319.47827441 3.12118631 319.47827441 3.12118631 317.51452732 3.12355614 C316.14621762 3.12168939 314.77790845 3.11938924 313.40960014 3.11669081 C309.63651272 3.11054946 305.86344739 3.11070914 302.09035611 3.11188519 C298.02619694 3.11208861 293.96204498 3.10657606 289.89788914 3.10182762 C281.93047509 3.09350766 273.96306845 3.09077217 265.99565043 3.09021524 C259.52166491 3.08974071 253.04768184 3.08768909 246.57369709 3.08451462 C228.23371537 3.07570427 209.89373951 3.07109582 191.55375566 3.07184509 C190.06950441 3.07190503 190.06950441 3.07190503 188.55526829 3.07196617 C187.56456443 3.07200705 186.57386057 3.07204793 185.55313538 3.07209005 C169.493103 3.0724966 153.43309406 3.06292579 137.37306847 3.0488278 C120.89740336 3.03447866 104.4217497 3.02755682 87.94607818 3.02842158 C78.69036201 3.02875406 69.4346704 3.02598463 60.17895985 3.01524353 C52.29887305 3.00615771 44.41882194 3.00394741 36.53873219 3.01075295 C32.51601843 3.01402794 28.49337325 3.01403978 24.47066593 3.0053997 C20.79061989 2.9975767 17.11069727 2.99892277 13.43065439 3.00768384 C11.46329893 3.00996173 9.49593977 3.00235732 7.5285989 2.99444419 C5.78377171 3.00134239 5.78377171 3.00134239 4.00369549 3.00837994 C2.99776132 3.00816257 1.99182715 3.0079452 0.95541012 3.00772125 C-1.76307136 3.26632461 -3.38832989 3.77659537 -5.66787624 5.25726891 Z " fill="#000000" transform="translate(25.66787624359131,11.742731094360352)"/>
<path d="M0 0 C2.6015625 0.5078125 2.6015625 0.5078125 5.7265625 2.4453125 C8.1911572 6.47081718 8.89171271 9.80737906 8.6015625 14.5078125 C7.45485238 17.76688336 6.21921183 19.7951402 3.9765625 22.3828125 C0.23734118 24.1540226 -3.34381346 24.17996943 -7.3984375 23.5078125 C-10.26873619 21.71387582 -11.88975388 20.52517974 -13.3984375 17.5078125 C-13.97091482 12.50272508 -14.48056067 7.17792211 -11.5859375 2.8203125 C-7.55405563 -0.10477827 -4.89533455 -0.30348435 0 0 Z " fill="#F4F9FA" transform="translate(180.3984375,48.4921875)"/>
<path d="M0 0 C1.65 0 3.3 0 5 0 C5.50512244 1.60256108 6.00391627 3.20711792 6.5 4.8125 C6.7784375 5.70582031 7.056875 6.59914063 7.34375 7.51953125 C8 10 8 10 8 13 C8.66 13 9.32 13 10 13 C10.13277344 12.31292969 10.26554687 11.62585937 10.40234375 10.91796875 C10.57894531 10.01691406 10.75554687 9.11585937 10.9375 8.1875 C11.19853516 6.84751953 11.19853516 6.84751953 11.46484375 5.48046875 C12 3 12 3 13 0 C14.98 0 16.96 0 19 0 C20.32 3.96 21.64 7.92 23 12 C23.66 10.02 24.32 8.04 25 6 C26 3 26 3 27 0 C28.65 0 30.3 0 32 0 C30.64741104 7.88416983 28.45600648 15.39353334 26 23 C24.35 23 22.7 23 21 23 C20.70996094 22.11248047 20.70996094 22.11248047 20.4140625 21.20703125 C20.15367188 20.41683594 19.89328125 19.62664062 19.625 18.8125 C19.36976562 18.03519531 19.11453125 17.25789063 18.8515625 16.45703125 C17.98008898 13.94255032 16.9883515 11.47087874 16 9 C14.35 13.62 12.7 18.24 11 23 C9.35 23 7.7 23 6 23 C4.99572108 19.54289448 3.9973056 16.08412303 3 12.625 C2.71382812 11.64015625 2.42765625 10.6553125 2.1328125 9.640625 C1.86210938 8.69960938 1.59140625 7.75859375 1.3125 6.7890625 C1.06113281 5.91975098 0.80976562 5.05043945 0.55078125 4.15478516 C0 2 0 2 0 0 Z " fill="#F5FAFB" transform="translate(57,49)"/>
<path d="M0 0 C13.64751088 -0.27570729 13.64751088 -0.27570729 18 2 C19.58200941 5.16401881 19.06168567 8.53874837 19 12 C19 12.99 19 13.98 19 15 C19.33 15.33 19.66 15.66 20 16 C20.14115161 18.67058851 20.04247107 21.32432238 20 24 C18.02 24 16.04 24 14 24 C13.34 21.69 12.68 19.38 12 17 C10.02 16.67 8.04 16.34 6 16 C6 18.64 6 21.28 6 24 C4.02 24 2.04 24 0 24 C0 16.08 0 8.16 0 0 Z M6 6 C6 7.65 6 9.3 6 11 C7.98 11 9.96 11 12 11 C12.33 9.35 12.66 7.7 13 6 C10.69 6 8.38 6 6 6 Z " fill="#000000" transform="translate(230,48)"/>
<path d="M0 0 C2.9375 1.1875 2.9375 1.1875 5 3 C5.8125 5.6875 5.8125 5.6875 6 8 C3.125 8.125 3.125 8.125 0 8 C-0.66 7.34 -1.32 6.68 -2 6 C-4.05714832 6.01382865 -4.05714832 6.01382865 -6 7 C-8.02347582 9.60161177 -8.01227682 10.87477646 -7.6875 14.1875 C-7.28524717 16.88774554 -7.28524717 16.88774554 -6 18 C-4.00041636 18.04080783 -1.99954746 18.04254356 0 18 C0.33 17.34 0.66 16.68 1 16 C-0.32 16 -1.64 16 -3 16 C-3 14.35 -3 12.7 -3 11 C0.3 11 3.6 11 7 11 C7.29254918 15.97333608 7.16504232 19.0436971 4 23 C0.23448583 25.34441394 -2.5262917 25.19568629 -6.80859375 24.6171875 C-10.19138116 23.6644595 -11.88237248 21.71321026 -14 19 C-15.72447196 15.55105608 -15.36671096 11.77843255 -15 8 C-11.95713599 1.00141279 -7.49776328 -1.08598555 0 0 Z " fill="#000000" transform="translate(218,48)"/>
<path d="M0 0 C1.98 0 3.96 0 6 0 C6 3.3 6 6.6 6 10 C8.64 10 11.28 10 14 10 C14 6.7 14 3.4 14 0 C15.98 0 17.96 0 20 0 C20 7.92 20 15.84 20 24 C18.02 24 16.04 24 14 24 C14 21.03 14 18.06 14 15 C11.36 15 8.72 15 6 15 C6 17.97 6 20.94 6 24 C4.02 24 2.04 24 0 24 C0 16.08 0 8.16 0 0 Z " fill="#000000" transform="translate(305,48)"/>
<path d="M0 0 C13.63520871 -0.41318814 13.63520871 -0.41318814 18 3 C19.88461324 7.16185424 20.35136967 9.05130188 18.75 13.375 C17 16 17 16 15 17 C13.45976004 17.06950541 11.91665012 17.08452357 10.375 17.0625 C9.14910156 17.04896484 9.14910156 17.04896484 7.8984375 17.03515625 C7.27195312 17.02355469 6.64546875 17.01195313 6 17 C6 19.31 6 21.62 6 24 C4.02 24 2.04 24 0 24 C0 16.08 0 8.16 0 0 Z M6 6 C6 7.98 6 9.96 6 12 C7.98 12 9.96 12 12 12 C12.38218767 10.34385343 12.71395102 8.67542976 13 7 C11.87465895 5.64381501 11.87465895 5.64381501 8.9375 5.9375 C7.968125 5.958125 6.99875 5.97875 6 6 Z " fill="#000000" transform="translate(281,48)"/>
<path d="M0 0 C13.32067511 -0.49335834 13.32067511 -0.49335834 16.42578125 1.76171875 C18.99132869 5.40950704 18.48760928 7.61151648 18 12 C16.18836733 14.67431489 15.12238923 14.95920359 12 16 C9.66700175 16.03954234 7.33291811 16.04401732 5 16 C5 18.31 5 20.62 5 23 C3.35 23 1.7 23 0 23 C0 15.41 0 7.82 0 0 Z " fill="#F8FBFC" transform="translate(121,49)"/>
<path d="M0 0 C1.98 0 3.96 0 6 0 C8.45924567 5.86590564 10.91020791 11.73550972 13.3125 17.625 C13.80169922 18.81996094 13.80169922 18.81996094 14.30078125 20.0390625 C15 22 15 22 15 24 C12.69 24 10.38 24 8 24 C7.67 23.01 7.34 22.02 7 21 C4.36 20.67 1.72 20.34 -1 20 C-1.33 21.32 -1.66 22.64 -2 24 C-3.98 24 -5.96 24 -8 24 C-7.3661521 18.482845 -5.49435691 13.73252191 -3.4375 8.625 C-2.9434668 7.37783203 -2.9434668 7.37783203 -2.43945312 6.10546875 C-1.63155238 4.06815382 -0.8182989 2.03315558 0 0 Z M3 9 C2.34 10.98 1.68 12.96 1 15 C2.32 15 3.64 15 5 15 C4.67 13.02 4.34 11.04 4 9 C3.67 9 3.34 9 3 9 Z " fill="#000000" transform="translate(262,48)"/>
<path d="M0 0 C1.98 0 3.96 0 6 0 C7.33871641 3.45627381 8.67005392 6.91534297 10 10.375 C10.3815625 11.35984375 10.763125 12.3446875 11.15625 13.359375 C11.5171875 14.30039062 11.878125 15.24140625 12.25 16.2109375 C12.58515625 17.08024902 12.9203125 17.94956055 13.265625 18.84521484 C14 21 14 21 14 23 C12.02 23 10.04 23 8 23 C8 21.68 8 20.36 8 19 C4.7 19 1.4 19 -2 19 C-2.33 20.32 -2.66 21.64 -3 23 C-4.65 23 -6.3 23 -8 23 C-7.26905294 17.94514073 -5.31619096 13.40096821 -3.4375 8.6875 C-3.10814453 7.85154297 -2.77878906 7.01558594 -2.43945312 6.15429688 C-1.63001123 4.10136454 -0.81676543 2.05002714 0 0 Z " fill="#F1F8F9" transform="translate(102,49)"/>
<path d="M0 0 C1.28197266 -0.01160156 1.28197266 -0.01160156 2.58984375 -0.0234375 C5.54175464 0.45222587 6.94477182 1.28183944 9.0625 3.375 C9.0625 4.365 9.0625 5.355 9.0625 6.375 C7.39638095 6.417721 5.72867115 6.41563832 4.0625 6.375 C3.7325 6.045 3.4025 5.715 3.0625 5.375 C1.39632885 5.33436168 -0.27138095 5.332279 -1.9375 5.375 C-1.9375 6.365 -1.9375 7.355 -1.9375 8.375 C-1.23882812 8.56835938 -0.54015625 8.76171875 0.1796875 8.9609375 C1.08976562 9.22132812 1.99984375 9.48171875 2.9375 9.75 C3.84242187 10.00523438 4.74734375 10.26046875 5.6796875 10.5234375 C8.0625 11.375 8.0625 11.375 10.0625 13.375 C10.5 16.25 10.5 16.25 10.0625 19.375 C7.91543133 22.00689063 6.25621254 23.1440285 2.90234375 23.79296875 C-1.50243026 24.06504995 -3.39071604 23.78787768 -7 21.0625 C-8.9375 18.375 -8.9375 18.375 -8.9375 15.375 C-6.5625 15.1875 -6.5625 15.1875 -3.9375 15.375 C-2.9475 16.86 -2.9475 16.86 -1.9375 18.375 C0.64630177 18.62530977 0.64630177 18.62530977 3.0625 18.375 C3.3925 17.385 3.7225 16.395 4.0625 15.375 C2.88880859 14.97667969 2.88880859 14.97667969 1.69140625 14.5703125 C0.17353516 14.04050781 0.17353516 14.04050781 -1.375 13.5 C-2.38433594 13.15195312 -3.39367188 12.80390625 -4.43359375 12.4453125 C-6.9375 11.375 -6.9375 11.375 -7.9375 9.375 C-8.39440346 4.00638439 -8.39440346 4.00638439 -6.73046875 1.70703125 C-4.37955308 -0.03950958 -2.90654163 -0.02622444 0 0 Z " fill="#F3F8F9" transform="translate(41.9375,48.625)"/>
<path d="M0 0 C2.31 0 4.62 0 7 0 C8.32 2.64 9.64 5.28 11 8 C11.27972656 7.4225 11.55945313 6.845 11.84765625 6.25 C12.24855469 5.5075 12.64945312 4.765 13.0625 4 C13.44535156 3.2575 13.82820313 2.515 14.22265625 1.75 C16 0 16 0 19.68359375 -0.25 C20.77800781 -0.1675 21.87242187 -0.085 23 0 C22.43410156 1.0621875 21.86820312 2.124375 21.28515625 3.21875 C20.54362329 4.64549697 19.80277419 6.07259951 19.0625 7.5 C18.50272461 8.54414062 18.50272461 8.54414062 17.93164062 9.609375 C15.42460649 14.48792792 14.38851733 18.52375576 14 24 C12.02 24 10.04 24 8 24 C7.979375 22.783125 7.95875 21.56625 7.9375 20.3125 C7.33296365 14.38048707 4.43193367 9.77324605 1.49609375 4.72265625 C0 2 0 2 0 0 Z " fill="#000000" transform="translate(329,48)"/>
<path d="M0 0 C5.94 0 11.88 0 18 0 C18 1.32 18 2.64 18 4 C15.69 4 13.38 4 11 4 C11 10.27 11 16.54 11 23 C9.35 23 7.7 23 6 23 C6 16.73 6 10.46 6 4 C4.02 4 2.04 4 0 4 C0 2.68 0 1.36 0 0 Z " fill="#F9FCFC" transform="translate(144,49)"/>
<path d="M0 0 C1.8125 1 1.8125 1 3 3 C3.39487671 7.14620548 3.59376995 9.749958 1.8125 13.5 C0 15 0 15 -2.5 15.5 C-5 15 -5 15 -6.8125 13.5 C-8.59376995 9.749958 -8.39487671 7.14620548 -8 3 C-5.99552859 -0.37595184 -3.7543224 -0.56314836 0 0 Z " fill="#1B8A9D" transform="translate(180,53)"/>
<path d="M0 0 C2.875 -0.125 2.875 -0.125 6 0 C6.66 0.66 7.32 1.32 8 2 C7.625 4.625 7.625 4.625 7 7 C4.69 7 2.38 7 0 7 C0 4.69 0 2.38 0 0 Z " fill="#1F8C9F" transform="translate(126,53)"/>
<path d="M0 0 C0.66 0.33 1.32 0.66 2 1 C2.73075648 3.3140622 3.40138258 5.64828869 4 8 C2.02 8 0.04 8 -2 8 C-1.125 2.25 -1.125 2.25 0 0 Z " fill="#3497A8" transform="translate(104,56)"/>
</svg>
